<svg width="24" height="23" viewBox="0 0 24 23" fill="none" xmlns="http://www.w3.org/2000/svg">
<path d="M22.5253 16.1921V14.4969C22.5253 12.9147 20.9431 11.6715 19.3609 11.6715C17.7787 11.6715 16.1965 12.9147 16.1965 14.4969V16.1921C15.5184 16.1921 14.8404 16.8702 14.8404 17.5482V21.5037C14.8404 22.2948 15.5184 22.9729 16.1965 22.9729H22.4123C23.2034 22.9729 23.8815 22.2948 23.8815 21.6168V17.6613C23.8815 16.8702 23.2034 16.1921 22.5253 16.1921ZM21.0561 16.1921H17.6657V14.4969C17.6657 13.5928 18.4568 13.0277 19.3609 13.0277C20.265 13.0277 21.0561 13.5928 21.0561 14.4969V16.1921ZM12.5801 9.41124H14.8404V11.6715H12.5801V9.41124ZM8.05951 11.6715H5.79923V9.41124H8.05951V11.6715ZM12.5801 18.4524H11.4499V2.6304H17.1006V9.9085C17.79 9.60336 18.5585 9.41124 19.3609 9.41124V2.6304C19.3609 1.38724 18.3438 0.370117 17.1006 0.370117H3.53895C2.2958 0.370117 1.27867 1.38724 1.27867 2.6304V18.4524H0.148529V20.7126H12.5801V18.4524ZM9.18965 18.4524H3.53895V2.6304H9.18965V18.4524Z" fill="white"/>
</svg>
