<svg width="22" height="21" viewBox="0 0 22 21" fill="none" xmlns="http://www.w3.org/2000/svg">
<path d="M1.71705 19.9883L1.71565 19.9869C1.61032 19.8819 1.55637 19.7601 1.55637 19.5825C1.55637 19.4049 1.61032 19.2831 1.71565 19.1781L1.71704 19.1767C1.82201 19.0714 1.94386 19.0174 2.12144 19.0174H3.25158H3.81665V18.4524V1.50026C3.81665 1.32242 3.87048 1.19972 3.9755 1.09403C4.08119 0.989007 4.20389 0.935187 4.38172 0.935187H12.2927C12.4705 0.935187 12.5933 0.989015 12.6989 1.09405C12.804 1.19974 12.8578 1.32244 12.8578 1.50026V2.06533H13.4228H17.9434C18.1216 2.06533 18.2437 2.11934 18.3485 2.22417L18.7481 1.82461L18.3485 2.22417C18.4545 2.33016 18.5085 2.4528 18.5085 2.6304V18.4524V19.0174H19.0735H20.2037C20.3813 19.0174 20.5031 19.0714 20.6081 19.1767L20.6095 19.1781C20.7148 19.2831 20.7688 19.4049 20.7688 19.5825C20.7688 19.7601 20.7148 19.8819 20.6095 19.9869L20.6081 19.9883C20.5031 20.0936 20.3813 20.1476 20.2037 20.1476H17.9434C17.7658 20.1476 17.644 20.0936 17.539 19.9883L17.5376 19.9869C17.4323 19.8819 17.3783 19.7601 17.3783 19.5825V3.76054V3.19547H16.8133H13.4228H12.8578V3.76054V19.5825C12.8578 19.7607 12.8038 19.8828 12.6989 19.9876C12.5929 20.0936 12.4703 20.1476 12.2927 20.1476H2.12144C1.94386 20.1476 1.82201 20.0936 1.71705 19.9883ZM21.0083 18.7778C21.2253 18.9941 21.3338 19.2623 21.3338 19.5825C21.3338 19.9027 21.2253 20.1709 21.0083 20.3872V18.7778ZM11.2385 9.33672L11.2371 9.33533C10.909 9.00834 10.4946 8.84617 10.0324 8.84617C9.57022 8.84617 9.15584 9.00838 8.8282 9.33603C8.50021 9.66401 8.33721 10.0786 8.33721 10.5414C8.33721 11.0039 8.50003 11.4182 8.8282 11.7456C9.15559 12.0738 9.56992 12.2366 10.0324 12.2366C10.4952 12.2366 10.9098 12.0736 11.2378 11.7456C11.5654 11.418 11.7276 11.0036 11.7276 10.5414C11.7276 10.0792 11.5655 9.66484 11.2385 9.33672Z" stroke="white" stroke-width="1.13014"/>
</svg>
