<svg width="23" height="23" viewBox="0 0 23 23" fill="none" xmlns="http://www.w3.org/2000/svg">
<path fill-rule="evenodd" clip-rule="evenodd" d="M15.7993 12.4904C17.0482 13.3382 17.9234 14.4868 17.9234 16.0183V18.7532H21.5698V16.0183C21.5698 14.031 18.3154 12.8551 15.7993 12.4904Z" fill="white"/>
<path d="M8.80732 11.4603C10.8212 11.4603 12.4538 9.82773 12.4538 7.81385C12.4538 5.79998 10.8212 4.16742 8.80732 4.16742C6.79345 4.16742 5.16089 5.79998 5.16089 7.81385C5.16089 9.82773 6.79345 11.4603 8.80732 11.4603Z" fill="white"/>
<path fill-rule="evenodd" clip-rule="evenodd" d="M14.2769 11.4603C16.2916 11.4603 17.9234 9.82851 17.9234 7.81385C17.9234 5.7992 16.2916 4.16742 14.2769 4.16742C13.8485 4.16742 13.4474 4.25858 13.0645 4.38621C13.8489 5.35636 14.2769 6.56623 14.2769 7.81385C14.2769 9.06148 13.8489 10.2714 13.0645 11.2415C13.4474 11.3691 13.8485 11.4603 14.2769 11.4603ZM8.80727 12.3719C6.37328 12.3719 1.5144 13.5935 1.5144 16.0183V18.7532H16.1001V16.0183C16.1001 13.5935 11.2413 12.3719 8.80727 12.3719Z" fill="white"/>
</svg>
