<svg width="25" height="25" viewBox="0 0 20 20" fill="none" xmlns="http://www.w3.org/2000/svg">
<path d="M4.91243 4.03621C5.91806 4.03621 6.72671 3.22756 6.72671 2.22193C6.72671 1.2163 5.91806 0.407654 4.91243 0.407654C3.9068 0.407654 3.09815 1.2163 3.09815 2.22193C3.09815 3.22756 3.9068 4.03621 4.91243 4.03621ZM6.98589 12.8484V16.9954H2.83897V12.8484H0.765503L3.23292 6.23409C3.36236 5.89344 3.59231 5.60021 3.89227 5.3933C4.19224 5.18639 4.54803 5.07558 4.91243 5.07558C5.27683 5.07558 5.63262 5.18639 5.93259 5.3933C6.23255 5.60021 6.4625 5.89344 6.59193 6.23409L9.05936 12.8484H6.98589Z" fill="white"/>
</svg>
